<?xml version="1.0" standalone="no"?>
<!DOCTYPE svg PUBLIC "-//W3C//DTD SVG 20010904//EN"
 "http://www.w3.org/TR/2001/REC-SVG-20010904/DTD/svg10.dtd">
<svg version="1.0" xmlns="http://www.w3.org/2000/svg"
 width="662.000000pt" height="662.000000pt" viewBox="0 0 662.000000 662.000000"
 preserveAspectRatio="xMidYMid meet">
<metadata>
Created by potrace 1.14, written by Peter Selinger 2001-2017
</metadata>
<g transform="translate(0.000000,662.000000) scale(0.100000,-0.100000)"
fill="#000000" stroke="none">
<path d="M1640 6481 c-79 -25 -88 -32 -420 -380 -238 -249 -258 -273 -280
-319 -33 -70 -29 -171 11 -235 18 -29 33 -73 47 -137 20 -92 -11 -243 -75
-359 -55 -102 -107 -162 -341 -399 -236 -238 -291 -305 -359 -443 -81 -166
-114 -319 -108 -514 4 -144 7 -164 40 -280 96 -328 362 -615 668 -719 142 -48
248 -66 387 -67 187 0 327 34 504 122 140 71 204 122 436 352 232 229 262 255
352 297 91 43 185 60 293 55 169 -8 287 -59 405 -175 232 -228 252 -593 46
-842 -24 -29 -132 -142 -239 -251 -203 -204 -268 -285 -336 -416 -36 -71 -84
-208 -95 -276 -3 -16 -8 -48 -12 -70 -4 -22 -7 -86 -8 -143 -3 -236 84 -489
233 -683 169 -218 446 -374 721 -406 280 -33 585 46 807 208 37 27 158 138
268 247 226 224 265 257 350 300 170 85 342 88 534 11 87 -36 118 -43 181 -42
64 0 136 40 199 110 54 58 303 320 501 526 58 60 113 124 123 143 65 125 16
254 -122 320 -75 36 -209 81 -262 89 -24 4 -62 10 -84 15 -58 13 -238 9 -331
-7 -170 -29 -345 -103 -477 -202 -43 -32 -173 -152 -290 -268 -117 -115 -232
-223 -257 -240 -164 -108 -365 -134 -555 -71 -165 54 -310 192 -370 351 -31
84 -35 103 -40 206 -7 143 34 289 113 403 17 24 124 138 239 253 232 234 293
309 357 440 82 167 115 306 115 490 0 188 -35 336 -120 502 -164 321 -470 536
-839 588 -51 7 -231 7 -264 0 -11 -2 -39 -7 -61 -10 -143 -20 -331 -98 -465
-193 -36 -25 -168 -148 -295 -272 -271 -267 -317 -299 -475 -337 -61 -14 -185
-18 -240 -8 -63 12 -166 51 -220 84 -222 135 -331 383 -283 646 14 76 46 165
75 207 10 14 18 29 18 33 0 14 48 66 258 280 223 227 284 303 353 445 127 260
146 544 56 825 -46 143 -142 221 -275 223 -37 0 -78 -3 -92 -7z"/>
</g>
</svg>
