<?xml version="1.0" standalone="no"?>
<svg viewBox="0 0 200 200" xmlns="http://www.w3.org/2000/svg">
  <path fill="#9EABF7" d="M31.8,-64.7C34.3,-53.6,24.7,-31.1,25.4,-18.5C26.1,-5.8,37.2,-2.9,40.9,2.2C44.7,7.2,41.1,14.5,39.4,25.4C37.7,36.3,37.7,50.9,31.5,55.8C25.2,60.7,12.6,55.8,-0.2,56.2C-13,56.6,-26,62.1,-39.7,61.5C-53.4,60.9,-67.7,54.1,-75.7,42.9C-83.7,31.6,-85.2,15.8,-85.5,-0.2C-85.8,-16.1,-84.8,-32.2,-75.7,-41.6C-66.6,-50.9,-49.5,-53.5,-35.6,-58.1C-21.6,-62.6,-10.8,-68.9,1.9,-72.3C14.6,-75.6,29.2,-75.8,31.8,-64.7Z" transform="translate(100 100)" />
</svg>
